<?xml version="1.0" standalone="no"?>
<!DOCTYPE svg PUBLIC "-//W3C//DTD SVG 20010904//EN"
 "http://www.w3.org/TR/2001/REC-SVG-20010904/DTD/svg10.dtd">
<svg version="1.0" xmlns="http://www.w3.org/2000/svg"
 width="150.000000pt" height="90.000000pt" viewBox="0 0 150.000000 90.000000"
 preserveAspectRatio="xMidYMid meet">

<g transform="translate(0.000000,90.000000) scale(0.100000,-0.100000)"
fill="#000000" stroke="none">
<path d="M213 648 c-41 -11 -49 -25 -21 -34 12 -3 57 -40 99 -80 69 -66 124
-102 136 -90 12 11 -24 100 -54 136 -52 61 -104 83 -160 68z"/>
<path d="M703 648 c-41 -11 -49 -25 -21 -34 12 -3 57 -40 99 -80 69 -66 124
-102 136 -90 12 11 -24 100 -54 136 -52 61 -104 83 -160 68z"/>
<path d="M1183 648 c-41 -11 -49 -25 -21 -34 12 -3 57 -40 99 -80 69 -66 124
-102 136 -90 12 11 -24 100 -54 136 -52 61 -104 83 -160 68z"/>
<path d="M377 611 c30 -30 48 -60 60 -99 21 -70 19 -68 39 -51 42 35 -35 154
-121 185 -13 5 -4 -8 22 -35z"/>
<path d="M867 611 c30 -30 48 -60 60 -99 21 -70 19 -68 39 -51 42 35 -35 154
-121 185 -13 5 -4 -8 22 -35z"/>
<path d="M1347 611 c30 -30 48 -60 60 -99 21 -70 19 -68 39 -51 42 35 -35 154
-121 185 -13 5 -4 -8 22 -35z"/>
<path d="M123 587 c-53 -57 -50 -84 12 -131 71 -54 156 -89 219 -90 56 -1 60
0 67 27 6 21 4 27 -9 27 -29 1 -63 25 -131 93 -36 37 -82 73 -102 81 -34 14
-37 14 -56 -7z"/>
<path d="M613 587 c-53 -57 -50 -84 12 -131 71 -54 156 -89 219 -90 56 -1 60
0 67 27 6 21 4 27 -9 27 -29 1 -63 25 -131 93 -36 37 -82 73 -102 81 -34 14
-37 14 -56 -7z"/>
<path d="M1093 587 c-53 -57 -50 -84 12 -131 71 -54 156 -89 219 -90 56 -1 60
0 67 27 6 21 4 27 -9 27 -29 1 -63 25 -131 93 -36 37 -82 73 -102 81 -34 14
-37 14 -56 -7z"/>
<path d="M64 465 c-11 -26 14 -117 40 -150 l24 -30 116 1 c97 1 120 5 136 19
28 26 25 30 -25 33 -79 5 -177 50 -250 114 -30 26 -36 28 -41 13z"/>
<path d="M554 465 c-11 -26 14 -117 40 -150 l24 -30 116 1 c97 1 120 5 136 19
28 26 25 30 -25 33 -79 5 -177 50 -250 114 -30 26 -36 28 -41 13z"/>
<path d="M1034 465 c-11 -26 14 -117 40 -150 l24 -30 116 1 c97 1 120 5 136
19 28 26 25 30 -25 33 -79 5 -177 50 -250 114 -30 26 -36 28 -41 13z"/>
<path d="M474 432 c-24 -18 -41 -62 -26 -62 22 0 54 37 50 57 -3 21 -4 21 -24
5z"/>
<path d="M964 432 c-24 -18 -41 -62 -26 -62 22 0 54 37 50 57 -3 21 -4 21 -24
5z"/>
<path d="M1444 432 c-24 -18 -41 -62 -26 -62 22 0 54 37 50 57 -3 21 -4 21
-24 5z"/>
<path d="M455 348 c-42 -22 -71 -78 -41 -78 13 0 73 77 65 84 -2 3 -13 0 -24
-6z"/>
<path d="M945 348 c-42 -22 -71 -78 -41 -78 13 0 73 77 65 84 -2 3 -13 0 -24
-6z"/>
<path d="M1425 348 c-42 -22 -71 -78 -41 -78 13 0 73 77 65 84 -2 3 -13 0 -24
-6z"/>
<path d="M265 260 c-27 -4 -63 -6 -80 -4 -27 4 -25 2 14 -17 42 -20 45 -20 87
-4 24 9 46 21 49 26 7 10 4 10 -70 -1z"/>
<path d="M755 260 c-27 -4 -63 -6 -80 -4 -27 4 -25 2 14 -17 42 -20 45 -20 87
-4 24 9 46 21 49 26 7 10 4 10 -70 -1z"/>
<path d="M1235 260 c-27 -4 -63 -6 -80 -4 -27 4 -25 2 14 -17 42 -20 45 -20
87 -4 24 9 46 21 49 26 7 10 4 10 -70 -1z"/>
<path d="M350 245 c-14 -16 -10 -18 14 -9 9 3 16 10 16 15 0 14 -16 11 -30 -6z"/>
<path d="M840 245 c-14 -16 -10 -18 14 -9 9 3 16 10 16 15 0 14 -16 11 -30 -6z"/>
<path d="M1320 245 c-14 -16 -10 -18 14 -9 9 3 16 10 16 15 0 14 -16 11 -30
-6z"/>
</g>
</svg>
