<?xml version="1.0" encoding="utf-8"?>
<!-- Generator: Adobe Illustrator 26.3.1, SVG Export Plug-In . SVG Version: 6.00 Build 0)  -->
<svg version="1.1" id="Capa_1" xmlns="http://www.w3.org/2000/svg" xmlns:xlink="http://www.w3.org/1999/xlink" x="0px" y="0px"
	 viewBox="0 0 150 90" style="enable-background:new 0 0 150 90;" xml:space="preserve">
<style type="text/css">
	.st0{fill:#B20606;}
</style>
<g transform="translate(0.000000,90.000000) scale(0.100000,-0.100000)">
	<path class="st0" d="M213,648c-41-11-49-25-21-34c12-3,57-40,99-80c69-66,124-102,136-90c12,11-24,100-54,136
		C321,641,269,663,213,648z"/>
	<path class="st0" d="M703,648c-41-11-49-25-21-34c12-3,57-40,99-80c69-66,124-102,136-90c12,11-24,100-54,136
		C811,641,759,663,703,648z"/>
	<path class="st0" d="M1183,648c-41-11-49-25-21-34c12-3,57-40,99-80c69-66,124-102,136-90c12,11-24,100-54,136
		C1291,641,1239,663,1183,648z"/>
	<path class="st0" d="M377,611c30-30,48-60,60-99c21-70,19-68,39-51c42,35-35,154-121,185C342,651,351,638,377,611z"/>
	<path class="st0" d="M867,611c30-30,48-60,60-99c21-70,19-68,39-51c42,35-35,154-121,185C832,651,841,638,867,611z"/>
	<path class="st0" d="M1347,611c30-30,48-60,60-99c21-70,19-68,39-51c42,35-35,154-121,185C1312,651,1321,638,1347,611z"/>
	<path class="st0" d="M123,587c-53-57-50-84,12-131c71-54,156-89,219-90c56-1,60,0,67,27c6,21,4,27-9,27c-29,1-63,25-131,93
		c-36,37-82,73-102,81C145,608,142,608,123,587z"/>
	<path class="st0" d="M613,587c-53-57-50-84,12-131c71-54,156-89,219-90c56-1,60,0,67,27c6,21,4,27-9,27c-29,1-63,25-131,93
		c-36,37-82,73-102,81C635,608,632,608,613,587z"/>
	<path class="st0" d="M1093,587c-53-57-50-84,12-131c71-54,156-89,219-90c56-1,60,0,67,27c6,21,4,27-9,27c-29,1-63,25-131,93
		c-36,37-82,73-102,81C1115,608,1112,608,1093,587z"/>
	<path class="st0" d="M64,465c-11-26,14-117,40-150l24-30l116,1c97,1,120,5,136,19c28,26,25,30-25,33c-79,5-177,50-250,114
		C75,478,69,480,64,465z"/>
	<path class="st0" d="M554,465c-11-26,14-117,40-150l24-30l116,1c97,1,120,5,136,19c28,26,25,30-25,33c-79,5-177,50-250,114
		C565,478,559,480,554,465z"/>
	<path class="st0" d="M1034,465c-11-26,14-117,40-150l24-30l116,1c97,1,120,5,136,19c28,26,25,30-25,33c-79,5-177,50-250,114
		C1045,478,1039,480,1034,465z"/>
	<path class="st0" d="M474,432c-24-18-41-62-26-62c22,0,54,37,50,57C495,448,494,448,474,432z"/>
	<path class="st0" d="M964,432c-24-18-41-62-26-62c22,0,54,37,50,57C985,448,984,448,964,432z"/>
	<path class="st0" d="M1444,432c-24-18-41-62-26-62c22,0,54,37,50,57C1465,448,1464,448,1444,432z"/>
	<path class="st0" d="M455,348c-42-22-71-78-41-78c13,0,73,77,65,84C477,357,466,354,455,348z"/>
	<path class="st0" d="M945,348c-42-22-71-78-41-78c13,0,73,77,65,84C967,357,956,354,945,348z"/>
	<path class="st0" d="M1425,348c-42-22-71-78-41-78c13,0,73,77,65,84C1447,357,1436,354,1425,348z"/>
	<path class="st0" d="M265,260c-27-4-63-6-80-4c-27,4-25,2,14-17c42-20,45-20,87-4c24,9,46,21,49,26C342,271,339,271,265,260z"/>
	<path class="st0" d="M755,260c-27-4-63-6-80-4c-27,4-25,2,14-17c42-20,45-20,87-4c24,9,46,21,49,26C832,271,829,271,755,260z"/>
	<path class="st0" d="M1235,260c-27-4-63-6-80-4c-27,4-25,2,14-17c42-20,45-20,87-4c24,9,46,21,49,26C1312,271,1309,271,1235,260z"
		/>
	<path class="st0" d="M350,245c-14-16-10-18,14-9c9,3,16,10,16,15C380,265,364,262,350,245z"/>
	<path class="st0" d="M840,245c-14-16-10-18,14-9c9,3,16,10,16,15C870,265,854,262,840,245z"/>
	<path class="st0" d="M1320,245c-14-16-10-18,14-9c9,3,16,10,16,15C1350,265,1334,262,1320,245z"/>
</g>
</svg>
